<mxfile host="app.diagrams.net" modified="2024-03-18T23:56:42.179Z" agent="Mozilla/5.0 (Windows NT 10.0; Win64; x64) AppleWebKit/537.36 (KHTML, like Gecko) Chrome/122.0.0.0 Safari/537.36" etag="UdTv_RYoYMB_lLv668Tg" version="24.0.5" type="device">
  <diagram name="Página-1" id="IAsfNTabQoRcnqSvybvw">
    <mxGraphModel dx="3341" dy="1217" grid="1" gridSize="10" guides="1" tooltips="1" connect="1" arrows="1" fold="1" page="1" pageScale="1" pageWidth="827" pageHeight="1169" background="none" math="0" shadow="0">
      <root>
        <mxCell id="0" />
        <mxCell id="1" parent="0" />
        <mxCell id="_0hRWhvat12emm41GTX_-7" style="edgeStyle=orthogonalEdgeStyle;rounded=0;orthogonalLoop=1;jettySize=auto;html=1;entryX=0.5;entryY=0;entryDx=0;entryDy=0;" edge="1" parent="1" source="_0hRWhvat12emm41GTX_-5">
          <mxGeometry relative="1" as="geometry">
            <mxPoint x="120" y="250" as="targetPoint" />
          </mxGeometry>
        </mxCell>
        <mxCell id="_0hRWhvat12emm41GTX_-11" style="edgeStyle=orthogonalEdgeStyle;rounded=0;orthogonalLoop=1;jettySize=auto;html=1;entryX=0.5;entryY=0;entryDx=0;entryDy=0;" edge="1" parent="1" source="_0hRWhvat12emm41GTX_-5" target="_0hRWhvat12emm41GTX_-10">
          <mxGeometry relative="1" as="geometry" />
        </mxCell>
        <mxCell id="_0hRWhvat12emm41GTX_-12" style="edgeStyle=orthogonalEdgeStyle;rounded=0;orthogonalLoop=1;jettySize=auto;html=1;entryX=0.5;entryY=0;entryDx=0;entryDy=0;" edge="1" parent="1" source="_0hRWhvat12emm41GTX_-5" target="_0hRWhvat12emm41GTX_-9">
          <mxGeometry relative="1" as="geometry" />
        </mxCell>
        <mxCell id="_0hRWhvat12emm41GTX_-5" value="&lt;h3&gt;Procedimientos&lt;br&gt;Técnicos&amp;nbsp;&lt;/h3&gt;" style="shape=process;whiteSpace=wrap;html=1;backgroundOutline=1;fillColor=#dae8fc;strokeColor=#6c8ebf;" vertex="1" parent="1">
          <mxGeometry x="340" y="100" width="160" height="90" as="geometry" />
        </mxCell>
        <mxCell id="_0hRWhvat12emm41GTX_-14" value="" style="edgeStyle=orthogonalEdgeStyle;rounded=0;orthogonalLoop=1;jettySize=auto;html=1;" edge="1" parent="1" source="_0hRWhvat12emm41GTX_-8">
          <mxGeometry relative="1" as="geometry">
            <mxPoint x="120" y="390" as="targetPoint" />
          </mxGeometry>
        </mxCell>
        <mxCell id="_0hRWhvat12emm41GTX_-8" value="&lt;h4&gt;&lt;font style=&quot;font-size: 16px;&quot;&gt;Primer Año&lt;/font&gt;&lt;/h4&gt;" style="rounded=1;whiteSpace=wrap;html=1;fillColor=#dae8fc;strokeColor=#6c8ebf;" vertex="1" parent="1">
          <mxGeometry x="60" y="250" width="120" height="60" as="geometry" />
        </mxCell>
        <mxCell id="_0hRWhvat12emm41GTX_-19" value="" style="edgeStyle=orthogonalEdgeStyle;rounded=0;orthogonalLoop=1;jettySize=auto;html=1;" edge="1" parent="1" source="_0hRWhvat12emm41GTX_-9" target="_0hRWhvat12emm41GTX_-16">
          <mxGeometry relative="1" as="geometry" />
        </mxCell>
        <mxCell id="_0hRWhvat12emm41GTX_-9" value="&lt;h4&gt;&lt;font style=&quot;font-size: 16px;&quot;&gt;Segundo Año&lt;/font&gt;&lt;/h4&gt;" style="rounded=1;whiteSpace=wrap;html=1;fillColor=#dae8fc;strokeColor=#6c8ebf;" vertex="1" parent="1">
          <mxGeometry x="360" y="250" width="120" height="60" as="geometry" />
        </mxCell>
        <mxCell id="_0hRWhvat12emm41GTX_-85" value="" style="edgeStyle=orthogonalEdgeStyle;rounded=0;orthogonalLoop=1;jettySize=auto;html=1;" edge="1" parent="1" source="_0hRWhvat12emm41GTX_-10" target="_0hRWhvat12emm41GTX_-84">
          <mxGeometry relative="1" as="geometry" />
        </mxCell>
        <mxCell id="_0hRWhvat12emm41GTX_-10" value="&lt;h4&gt;&lt;font style=&quot;font-size: 16px;&quot;&gt;Tercer Año&lt;/font&gt;&lt;/h4&gt;" style="rounded=1;whiteSpace=wrap;html=1;fillColor=#dae8fc;strokeColor=#6c8ebf;" vertex="1" parent="1">
          <mxGeometry x="660" y="250" width="120" height="60" as="geometry" />
        </mxCell>
        <mxCell id="_0hRWhvat12emm41GTX_-22" value="" style="edgeStyle=orthogonalEdgeStyle;rounded=0;orthogonalLoop=1;jettySize=auto;html=1;" edge="1" parent="1" source="_0hRWhvat12emm41GTX_-15">
          <mxGeometry relative="1" as="geometry">
            <mxPoint x="-100" y="360" as="targetPoint" />
          </mxGeometry>
        </mxCell>
        <mxCell id="_0hRWhvat12emm41GTX_-27" style="edgeStyle=orthogonalEdgeStyle;rounded=0;orthogonalLoop=1;jettySize=auto;html=1;" edge="1" parent="1" source="_0hRWhvat12emm41GTX_-15" target="_0hRWhvat12emm41GTX_-26">
          <mxGeometry relative="1" as="geometry" />
        </mxCell>
        <mxCell id="_0hRWhvat12emm41GTX_-29" value="" style="edgeStyle=orthogonalEdgeStyle;rounded=0;orthogonalLoop=1;jettySize=auto;html=1;" edge="1" parent="1" source="_0hRWhvat12emm41GTX_-15" target="_0hRWhvat12emm41GTX_-28">
          <mxGeometry relative="1" as="geometry" />
        </mxCell>
        <mxCell id="_0hRWhvat12emm41GTX_-30" style="edgeStyle=orthogonalEdgeStyle;rounded=0;orthogonalLoop=1;jettySize=auto;html=1;" edge="1" parent="1" source="_0hRWhvat12emm41GTX_-15" target="_0hRWhvat12emm41GTX_-16">
          <mxGeometry relative="1" as="geometry" />
        </mxCell>
        <mxCell id="_0hRWhvat12emm41GTX_-15" value="&lt;div style=&quot;font-size: 14px;&quot;&gt;&lt;b&gt;Seguridad e&amp;nbsp;&lt;/b&gt;&lt;/div&gt;&lt;div style=&quot;font-size: 14px;&quot;&gt;&lt;b&gt;Higiene&lt;/b&gt;&lt;/div&gt;" style="shape=step;perimeter=stepPerimeter;whiteSpace=wrap;html=1;fixedSize=1;align=center;fillColor=#d5e8d4;strokeColor=#82b366;" vertex="1" parent="1">
          <mxGeometry x="45" y="390" width="150" height="80" as="geometry" />
        </mxCell>
        <mxCell id="_0hRWhvat12emm41GTX_-31" style="edgeStyle=orthogonalEdgeStyle;rounded=0;orthogonalLoop=1;jettySize=auto;html=1;entryX=0;entryY=0.5;entryDx=0;entryDy=0;" edge="1" parent="1" source="_0hRWhvat12emm41GTX_-16" target="_0hRWhvat12emm41GTX_-84">
          <mxGeometry relative="1" as="geometry">
            <mxPoint x="660" y="430" as="targetPoint" />
          </mxGeometry>
        </mxCell>
        <mxCell id="_0hRWhvat12emm41GTX_-43" style="edgeStyle=orthogonalEdgeStyle;rounded=0;orthogonalLoop=1;jettySize=auto;html=1;" edge="1" parent="1" source="_0hRWhvat12emm41GTX_-16" target="_0hRWhvat12emm41GTX_-33">
          <mxGeometry relative="1" as="geometry" />
        </mxCell>
        <mxCell id="_0hRWhvat12emm41GTX_-58" value="" style="edgeStyle=orthogonalEdgeStyle;rounded=0;orthogonalLoop=1;jettySize=auto;html=1;" edge="1" parent="1" source="_0hRWhvat12emm41GTX_-16" target="_0hRWhvat12emm41GTX_-51">
          <mxGeometry relative="1" as="geometry" />
        </mxCell>
        <mxCell id="_0hRWhvat12emm41GTX_-16" value="&lt;div style=&quot;font-size: 14px;&quot;&gt;&lt;span style=&quot;background-color: initial;&quot;&gt;&lt;b&gt;&amp;nbsp; Seguridad e Higiene&lt;/b&gt;&lt;/span&gt;&lt;/div&gt;" style="shape=step;perimeter=stepPerimeter;whiteSpace=wrap;html=1;fixedSize=1;fillColor=#d5e8d4;strokeColor=#82b366;" vertex="1" parent="1">
          <mxGeometry x="350" y="390" width="140" height="80" as="geometry" />
        </mxCell>
        <mxCell id="_0hRWhvat12emm41GTX_-23" value="Elementos de&amp;nbsp;&lt;br&gt;Protección Personal" style="rounded=1;whiteSpace=wrap;html=1;fillColor=#d5e8d4;strokeColor=#82b366;" vertex="1" parent="1">
          <mxGeometry x="-160" y="300" width="120" height="60" as="geometry" />
        </mxCell>
        <mxCell id="_0hRWhvat12emm41GTX_-26" value="Seguridad e Higiene&lt;br&gt;en el Taller" style="rounded=1;whiteSpace=wrap;html=1;fillColor=#d5e8d4;strokeColor=#82b366;" vertex="1" parent="1">
          <mxGeometry x="-280" y="400" width="120" height="60" as="geometry" />
        </mxCell>
        <mxCell id="_0hRWhvat12emm41GTX_-41" style="edgeStyle=orthogonalEdgeStyle;rounded=0;orthogonalLoop=1;jettySize=auto;html=1;" edge="1" parent="1" source="_0hRWhvat12emm41GTX_-28" target="_0hRWhvat12emm41GTX_-38">
          <mxGeometry relative="1" as="geometry" />
        </mxCell>
        <mxCell id="_0hRWhvat12emm41GTX_-42" style="edgeStyle=orthogonalEdgeStyle;rounded=0;orthogonalLoop=1;jettySize=auto;html=1;entryX=1;entryY=0.5;entryDx=0;entryDy=0;" edge="1" parent="1" source="_0hRWhvat12emm41GTX_-28" target="_0hRWhvat12emm41GTX_-39">
          <mxGeometry relative="1" as="geometry" />
        </mxCell>
        <mxCell id="_0hRWhvat12emm41GTX_-48" style="edgeStyle=orthogonalEdgeStyle;rounded=0;orthogonalLoop=1;jettySize=auto;html=1;entryX=0.5;entryY=0;entryDx=0;entryDy=0;" edge="1" parent="1" source="_0hRWhvat12emm41GTX_-28" target="_0hRWhvat12emm41GTX_-45">
          <mxGeometry relative="1" as="geometry" />
        </mxCell>
        <mxCell id="_0hRWhvat12emm41GTX_-49" style="edgeStyle=orthogonalEdgeStyle;rounded=0;orthogonalLoop=1;jettySize=auto;html=1;entryX=1;entryY=0.5;entryDx=0;entryDy=0;" edge="1" parent="1" source="_0hRWhvat12emm41GTX_-28" target="_0hRWhvat12emm41GTX_-37">
          <mxGeometry relative="1" as="geometry" />
        </mxCell>
        <mxCell id="_0hRWhvat12emm41GTX_-52" value="" style="edgeStyle=orthogonalEdgeStyle;rounded=0;orthogonalLoop=1;jettySize=auto;html=1;" edge="1" parent="1" source="_0hRWhvat12emm41GTX_-28" target="_0hRWhvat12emm41GTX_-51">
          <mxGeometry relative="1" as="geometry" />
        </mxCell>
        <mxCell id="_0hRWhvat12emm41GTX_-79" style="edgeStyle=orthogonalEdgeStyle;rounded=0;orthogonalLoop=1;jettySize=auto;html=1;entryX=1;entryY=0.5;entryDx=0;entryDy=0;" edge="1" parent="1" source="_0hRWhvat12emm41GTX_-28" target="_0hRWhvat12emm41GTX_-78">
          <mxGeometry relative="1" as="geometry" />
        </mxCell>
        <mxCell id="_0hRWhvat12emm41GTX_-28" value="&lt;div style=&quot;font-size: 14px;&quot;&gt;&lt;b&gt;Herramientas y&amp;nbsp;&lt;br&gt;Maquinarias&lt;/b&gt;&lt;/div&gt;" style="shape=step;perimeter=stepPerimeter;whiteSpace=wrap;html=1;fixedSize=1;align=center;fillColor=#fff2cc;strokeColor=#d6b656;" vertex="1" parent="1">
          <mxGeometry x="45" y="580" width="150" height="80" as="geometry" />
        </mxCell>
        <mxCell id="_0hRWhvat12emm41GTX_-33" value="Seguridad en el uso de las herramientas. Evacuación de Riesgos&lt;div&gt;Protección y Prevención.&amp;nbsp;&lt;span style=&quot;background-color: initial;&quot;&gt;Cartelería.&lt;/span&gt;&lt;/div&gt;&lt;div&gt;Riesgo Eléctrico&lt;/div&gt;" style="rounded=0;whiteSpace=wrap;html=1;fillColor=#d5e8d4;strokeColor=#82b366;" vertex="1" parent="1">
          <mxGeometry x="510" y="300" width="130" height="85" as="geometry" />
        </mxCell>
        <mxCell id="_0hRWhvat12emm41GTX_-37" value="Manuales y&amp;nbsp;&lt;br&gt;Eléctricas" style="rounded=1;whiteSpace=wrap;html=1;fillColor=#ffe6cc;strokeColor=#d79b00;" vertex="1" parent="1">
          <mxGeometry x="-280" y="510" width="120" height="60" as="geometry" />
        </mxCell>
        <mxCell id="_0hRWhvat12emm41GTX_-38" value="Cuidados y Mantenimientos" style="rounded=1;whiteSpace=wrap;html=1;fillColor=#ffe6cc;strokeColor=#d79b00;" vertex="1" parent="1">
          <mxGeometry x="-280" y="590" width="120" height="60" as="geometry" />
        </mxCell>
        <mxCell id="_0hRWhvat12emm41GTX_-39" value="Vinculación de Elementos a Trabajar&amp;nbsp;" style="rounded=1;whiteSpace=wrap;html=1;fillColor=#ffe6cc;strokeColor=#d79b00;" vertex="1" parent="1">
          <mxGeometry x="-280" y="680" width="120" height="60" as="geometry" />
        </mxCell>
        <mxCell id="_0hRWhvat12emm41GTX_-54" value="" style="edgeStyle=orthogonalEdgeStyle;rounded=0;orthogonalLoop=1;jettySize=auto;html=1;" edge="1" parent="1" source="_0hRWhvat12emm41GTX_-45" target="_0hRWhvat12emm41GTX_-53">
          <mxGeometry relative="1" as="geometry" />
        </mxCell>
        <mxCell id="_0hRWhvat12emm41GTX_-57" style="edgeStyle=orthogonalEdgeStyle;rounded=0;orthogonalLoop=1;jettySize=auto;html=1;" edge="1" parent="1" source="_0hRWhvat12emm41GTX_-45" target="_0hRWhvat12emm41GTX_-56">
          <mxGeometry relative="1" as="geometry" />
        </mxCell>
        <mxCell id="_0hRWhvat12emm41GTX_-60" value="" style="edgeStyle=orthogonalEdgeStyle;rounded=0;orthogonalLoop=1;jettySize=auto;html=1;" edge="1" parent="1" source="_0hRWhvat12emm41GTX_-45" target="_0hRWhvat12emm41GTX_-59">
          <mxGeometry relative="1" as="geometry" />
        </mxCell>
        <mxCell id="_0hRWhvat12emm41GTX_-63" value="" style="edgeStyle=orthogonalEdgeStyle;rounded=0;orthogonalLoop=1;jettySize=auto;html=1;" edge="1" parent="1" source="_0hRWhvat12emm41GTX_-45" target="_0hRWhvat12emm41GTX_-62">
          <mxGeometry relative="1" as="geometry" />
        </mxCell>
        <mxCell id="_0hRWhvat12emm41GTX_-45" value="&lt;div style=&quot;font-size: 14px;&quot;&gt;&lt;b&gt;Los recursos Materiales&lt;/b&gt;&lt;/div&gt;" style="shape=step;perimeter=stepPerimeter;whiteSpace=wrap;html=1;fixedSize=1;align=center;fillColor=#fad9d5;strokeColor=#ae4132;" vertex="1" parent="1">
          <mxGeometry x="45" y="920" width="150" height="80" as="geometry" />
        </mxCell>
        <mxCell id="_0hRWhvat12emm41GTX_-61" style="edgeStyle=orthogonalEdgeStyle;rounded=0;orthogonalLoop=1;jettySize=auto;html=1;entryX=0.5;entryY=0;entryDx=0;entryDy=0;" edge="1" parent="1" source="_0hRWhvat12emm41GTX_-51" target="_0hRWhvat12emm41GTX_-59">
          <mxGeometry relative="1" as="geometry" />
        </mxCell>
        <mxCell id="_0hRWhvat12emm41GTX_-77" value="" style="edgeStyle=orthogonalEdgeStyle;rounded=0;orthogonalLoop=1;jettySize=auto;html=1;" edge="1" parent="1" source="_0hRWhvat12emm41GTX_-51" target="_0hRWhvat12emm41GTX_-76">
          <mxGeometry relative="1" as="geometry" />
        </mxCell>
        <mxCell id="_0hRWhvat12emm41GTX_-82" style="edgeStyle=orthogonalEdgeStyle;rounded=0;orthogonalLoop=1;jettySize=auto;html=1;entryX=0;entryY=0.5;entryDx=0;entryDy=0;" edge="1" parent="1" source="_0hRWhvat12emm41GTX_-51" target="_0hRWhvat12emm41GTX_-81">
          <mxGeometry relative="1" as="geometry" />
        </mxCell>
        <mxCell id="_0hRWhvat12emm41GTX_-51" value="&lt;div style=&quot;font-size: 14px;&quot;&gt;&lt;b&gt;Herramientas y&amp;nbsp;&lt;br&gt;Maquinarias&lt;/b&gt;&lt;/div&gt;" style="shape=step;perimeter=stepPerimeter;whiteSpace=wrap;html=1;fixedSize=1;align=center;fillColor=#fff2cc;strokeColor=#d6b656;" vertex="1" parent="1">
          <mxGeometry x="345" y="580" width="150" height="80" as="geometry" />
        </mxCell>
        <mxCell id="_0hRWhvat12emm41GTX_-53" value="Obtención de los Materiales" style="rounded=1;whiteSpace=wrap;html=1;fillColor=#fad9d5;strokeColor=#ae4132;" vertex="1" parent="1">
          <mxGeometry x="-280" y="880" width="120" height="60" as="geometry" />
        </mxCell>
        <mxCell id="_0hRWhvat12emm41GTX_-56" value="Clasificación y Propiedades" style="rounded=1;whiteSpace=wrap;html=1;fillColor=#fad9d5;strokeColor=#ae4132;" vertex="1" parent="1">
          <mxGeometry x="-280" y="970" width="120" height="60" as="geometry" />
        </mxCell>
        <mxCell id="_0hRWhvat12emm41GTX_-88" value="" style="edgeStyle=orthogonalEdgeStyle;rounded=0;orthogonalLoop=1;jettySize=auto;html=1;" edge="1" parent="1" source="_0hRWhvat12emm41GTX_-59" target="_0hRWhvat12emm41GTX_-87">
          <mxGeometry relative="1" as="geometry" />
        </mxCell>
        <mxCell id="_0hRWhvat12emm41GTX_-90" style="edgeStyle=orthogonalEdgeStyle;rounded=0;orthogonalLoop=1;jettySize=auto;html=1;" edge="1" parent="1" source="_0hRWhvat12emm41GTX_-59" target="_0hRWhvat12emm41GTX_-89">
          <mxGeometry relative="1" as="geometry" />
        </mxCell>
        <mxCell id="_0hRWhvat12emm41GTX_-59" value="&lt;div style=&quot;font-size: 14px;&quot;&gt;&lt;b&gt;Los recursos Materiales&lt;/b&gt;&lt;/div&gt;" style="shape=step;perimeter=stepPerimeter;whiteSpace=wrap;html=1;fixedSize=1;align=center;fillColor=#fad9d5;strokeColor=#ae4132;" vertex="1" parent="1">
          <mxGeometry x="345" y="920" width="150" height="80" as="geometry" />
        </mxCell>
        <mxCell id="_0hRWhvat12emm41GTX_-65" value="" style="edgeStyle=orthogonalEdgeStyle;rounded=0;orthogonalLoop=1;jettySize=auto;html=1;" edge="1" parent="1" target="_0hRWhvat12emm41GTX_-64">
          <mxGeometry relative="1" as="geometry">
            <mxPoint x="64.97058823529414" y="1270.058823529412" as="sourcePoint" />
            <Array as="points">
              <mxPoint x="65" y="1240" />
              <mxPoint x="-60" y="1240" />
              <mxPoint x="-60" y="1110" />
            </Array>
          </mxGeometry>
        </mxCell>
        <mxCell id="_0hRWhvat12emm41GTX_-71" value="" style="edgeStyle=orthogonalEdgeStyle;rounded=0;orthogonalLoop=1;jettySize=auto;html=1;" edge="1" parent="1" source="_0hRWhvat12emm41GTX_-62" target="_0hRWhvat12emm41GTX_-68">
          <mxGeometry relative="1" as="geometry">
            <Array as="points">
              <mxPoint x="120" y="1370" />
              <mxPoint x="-100" y="1370" />
            </Array>
          </mxGeometry>
        </mxCell>
        <mxCell id="_0hRWhvat12emm41GTX_-93" style="edgeStyle=orthogonalEdgeStyle;rounded=0;orthogonalLoop=1;jettySize=auto;html=1;" edge="1" parent="1" source="_0hRWhvat12emm41GTX_-62" target="_0hRWhvat12emm41GTX_-91">
          <mxGeometry relative="1" as="geometry" />
        </mxCell>
        <mxCell id="_0hRWhvat12emm41GTX_-95" style="edgeStyle=orthogonalEdgeStyle;rounded=0;orthogonalLoop=1;jettySize=auto;html=1;entryX=1;entryY=0.5;entryDx=0;entryDy=0;" edge="1" parent="1" target="_0hRWhvat12emm41GTX_-66">
          <mxGeometry relative="1" as="geometry">
            <mxPoint x="64.97058823529414" y="1270.058823529412" as="sourcePoint" />
            <Array as="points">
              <mxPoint x="65" y="1240" />
              <mxPoint x="-60" y="1240" />
              <mxPoint x="-60" y="1200" />
            </Array>
          </mxGeometry>
        </mxCell>
        <mxCell id="_0hRWhvat12emm41GTX_-96" style="edgeStyle=orthogonalEdgeStyle;rounded=0;orthogonalLoop=1;jettySize=auto;html=1;" edge="1" parent="1" target="_0hRWhvat12emm41GTX_-67">
          <mxGeometry relative="1" as="geometry">
            <mxPoint x="64.97058823529414" y="1270.058823529412" as="sourcePoint" />
            <Array as="points">
              <mxPoint x="65" y="1240" />
              <mxPoint x="-60" y="1240" />
              <mxPoint x="-60" y="1284" />
            </Array>
          </mxGeometry>
        </mxCell>
        <mxCell id="_0hRWhvat12emm41GTX_-62" value="&lt;div style=&quot;font-size: 14px;&quot;&gt;&lt;b&gt;Organización &lt;br&gt;en el Trabajo&lt;/b&gt;&lt;/div&gt;" style="shape=step;perimeter=stepPerimeter;whiteSpace=wrap;html=1;fixedSize=1;align=center;fillColor=#dae8fc;strokeColor=#6c8ebf;gradientColor=#7ea6e0;" vertex="1" parent="1">
          <mxGeometry x="45" y="1200" width="150" height="80" as="geometry" />
        </mxCell>
        <mxCell id="_0hRWhvat12emm41GTX_-64" value="Trabajo en Equipo" style="rounded=1;whiteSpace=wrap;html=1;fillColor=#dae8fc;strokeColor=#6c8ebf;gradientColor=#7ea6e0;" vertex="1" parent="1">
          <mxGeometry x="-280" y="1080" width="120" height="60" as="geometry" />
        </mxCell>
        <mxCell id="_0hRWhvat12emm41GTX_-66" value="&lt;br&gt;Análisis y diseño&lt;br&gt;de productos y procesos tecnológicos&lt;div&gt;&lt;br/&gt;&lt;/div&gt;" style="rounded=1;whiteSpace=wrap;html=1;align=center;fillColor=#dae8fc;gradientColor=#7ea6e0;strokeColor=#6c8ebf;" vertex="1" parent="1">
          <mxGeometry x="-280" y="1170" width="120" height="60" as="geometry" />
        </mxCell>
        <mxCell id="_0hRWhvat12emm41GTX_-67" value="&lt;div&gt;&lt;span style=&quot;background-color: initial;&quot;&gt;Análisis de alternativas en la elaboración de un&lt;/span&gt;&lt;br&gt;&lt;/div&gt;producto y la toma de decisiones" style="rounded=1;whiteSpace=wrap;html=1;fillColor=#dae8fc;gradientColor=#7ea6e0;strokeColor=#6c8ebf;" vertex="1" parent="1">
          <mxGeometry x="-280" y="1249" width="120" height="70" as="geometry" />
        </mxCell>
        <mxCell id="_0hRWhvat12emm41GTX_-70" value="" style="edgeStyle=orthogonalEdgeStyle;rounded=0;orthogonalLoop=1;jettySize=auto;html=1;fillColor=#f5f5f5;strokeColor=#666666;gradientColor=#b3b3b3;sketch=1;curveFitting=1;jiggle=2;shadow=1;" edge="1" parent="1" source="_0hRWhvat12emm41GTX_-68" target="_0hRWhvat12emm41GTX_-69">
          <mxGeometry relative="1" as="geometry" />
        </mxCell>
        <mxCell id="_0hRWhvat12emm41GTX_-73" value="" style="edgeStyle=orthogonalEdgeStyle;rounded=0;orthogonalLoop=1;jettySize=auto;html=1;fillColor=#f5f5f5;strokeColor=#666666;gradientColor=#b3b3b3;sketch=1;curveFitting=1;jiggle=2;shadow=1;" edge="1" parent="1" source="_0hRWhvat12emm41GTX_-68" target="_0hRWhvat12emm41GTX_-72">
          <mxGeometry relative="1" as="geometry" />
        </mxCell>
        <mxCell id="_0hRWhvat12emm41GTX_-75" value="" style="edgeStyle=orthogonalEdgeStyle;rounded=0;orthogonalLoop=1;jettySize=auto;html=1;fillColor=#f5f5f5;strokeColor=#666666;gradientColor=#b3b3b3;sketch=1;curveFitting=1;jiggle=2;shadow=1;" edge="1" parent="1" source="_0hRWhvat12emm41GTX_-68" target="_0hRWhvat12emm41GTX_-74">
          <mxGeometry relative="1" as="geometry" />
        </mxCell>
        <mxCell id="_0hRWhvat12emm41GTX_-68" value="Trabajos Practicos" style="rhombus;whiteSpace=wrap;html=1;fillColor=#f5f5f5;strokeColor=#666666;gradientColor=#b3b3b3;sketch=1;curveFitting=1;jiggle=2;shadow=1;" vertex="1" parent="1">
          <mxGeometry x="-165" y="1450" width="130" height="130" as="geometry" />
        </mxCell>
        <mxCell id="_0hRWhvat12emm41GTX_-69" value="Jenga" style="ellipse;whiteSpace=wrap;html=1;fillColor=#f5f5f5;strokeColor=#666666;gradientColor=#b3b3b3;sketch=1;curveFitting=1;jiggle=2;shadow=1;" vertex="1" parent="1">
          <mxGeometry x="-350" y="1475" width="80" height="80" as="geometry" />
        </mxCell>
        <mxCell id="_0hRWhvat12emm41GTX_-72" value="Budinera" style="ellipse;whiteSpace=wrap;html=1;fillColor=#f5f5f5;strokeColor=#666666;gradientColor=#b3b3b3;sketch=1;curveFitting=1;jiggle=2;shadow=1;" vertex="1" parent="1">
          <mxGeometry x="-140" y="1685" width="80" height="80" as="geometry" />
        </mxCell>
        <mxCell id="_0hRWhvat12emm41GTX_-74" value="Porta Celular&lt;div&gt;de fibrofacil&lt;/div&gt;" style="ellipse;whiteSpace=wrap;html=1;fillColor=#f5f5f5;strokeColor=#666666;gradientColor=#b3b3b3;sketch=1;curveFitting=1;jiggle=2;shadow=1;" vertex="1" parent="1">
          <mxGeometry x="70" y="1475" width="80" height="80" as="geometry" />
        </mxCell>
        <mxCell id="_0hRWhvat12emm41GTX_-76" value="Calibre. Unidades Herramientas Eléctricas. Selección de adecuada de Maquinas e Instrumentos" style="whiteSpace=wrap;html=1;fillColor=#fff2cc;strokeColor=#d6b656;" vertex="1" parent="1">
          <mxGeometry x="510" y="460" width="130" height="90" as="geometry" />
        </mxCell>
        <mxCell id="_0hRWhvat12emm41GTX_-78" value="Medición y Trazado" style="rounded=1;whiteSpace=wrap;html=1;fillColor=#ffe6cc;strokeColor=#d79b00;" vertex="1" parent="1">
          <mxGeometry x="-280" y="770" width="120" height="60" as="geometry" />
        </mxCell>
        <mxCell id="_0hRWhvat12emm41GTX_-127" style="edgeStyle=orthogonalEdgeStyle;rounded=0;orthogonalLoop=1;jettySize=auto;html=1;" edge="1" parent="1" source="_0hRWhvat12emm41GTX_-81" target="_0hRWhvat12emm41GTX_-126">
          <mxGeometry relative="1" as="geometry" />
        </mxCell>
        <mxCell id="_0hRWhvat12emm41GTX_-81" value="&lt;div style=&quot;font-size: 14px;&quot;&gt;&lt;b&gt;Herramientas y&amp;nbsp;&lt;br&gt;Maquinarias&lt;/b&gt;&lt;/div&gt;" style="shape=step;perimeter=stepPerimeter;whiteSpace=wrap;html=1;fixedSize=1;align=center;fillColor=#fff2cc;strokeColor=#d6b656;" vertex="1" parent="1">
          <mxGeometry x="645" y="580" width="150" height="80" as="geometry" />
        </mxCell>
        <mxCell id="_0hRWhvat12emm41GTX_-123" style="edgeStyle=orthogonalEdgeStyle;rounded=0;orthogonalLoop=1;jettySize=auto;html=1;entryX=0;entryY=0.5;entryDx=0;entryDy=0;" edge="1" parent="1" source="_0hRWhvat12emm41GTX_-84" target="_0hRWhvat12emm41GTX_-116">
          <mxGeometry relative="1" as="geometry" />
        </mxCell>
        <mxCell id="_0hRWhvat12emm41GTX_-124" style="edgeStyle=orthogonalEdgeStyle;rounded=0;orthogonalLoop=1;jettySize=auto;html=1;" edge="1" parent="1" source="_0hRWhvat12emm41GTX_-84" target="_0hRWhvat12emm41GTX_-117">
          <mxGeometry relative="1" as="geometry" />
        </mxCell>
        <mxCell id="_0hRWhvat12emm41GTX_-125" style="edgeStyle=orthogonalEdgeStyle;rounded=0;orthogonalLoop=1;jettySize=auto;html=1;" edge="1" parent="1" source="_0hRWhvat12emm41GTX_-84" target="_0hRWhvat12emm41GTX_-122">
          <mxGeometry relative="1" as="geometry" />
        </mxCell>
        <mxCell id="_0hRWhvat12emm41GTX_-84" value="&lt;div style=&quot;font-size: 14px;&quot;&gt;&lt;span style=&quot;background-color: initial;&quot;&gt;&lt;b&gt;&amp;nbsp; Seguridad e Higiene&lt;/b&gt;&lt;/span&gt;&lt;/div&gt;" style="shape=step;perimeter=stepPerimeter;whiteSpace=wrap;html=1;fixedSize=1;fillColor=#d5e8d4;strokeColor=#82b366;" vertex="1" parent="1">
          <mxGeometry x="650" y="390" width="140" height="80" as="geometry" />
        </mxCell>
        <mxCell id="_0hRWhvat12emm41GTX_-129" style="edgeStyle=orthogonalEdgeStyle;rounded=0;orthogonalLoop=1;jettySize=auto;html=1;entryX=0;entryY=0.5;entryDx=0;entryDy=0;" edge="1" parent="1" source="_0hRWhvat12emm41GTX_-87" target="_0hRWhvat12emm41GTX_-128">
          <mxGeometry relative="1" as="geometry" />
        </mxCell>
        <mxCell id="_0hRWhvat12emm41GTX_-135" style="edgeStyle=orthogonalEdgeStyle;rounded=0;orthogonalLoop=1;jettySize=auto;html=1;entryX=0;entryY=0.5;entryDx=0;entryDy=0;" edge="1" parent="1" source="_0hRWhvat12emm41GTX_-87" target="_0hRWhvat12emm41GTX_-130">
          <mxGeometry relative="1" as="geometry">
            <Array as="points">
              <mxPoint x="888" y="960" />
              <mxPoint x="888" y="880" />
            </Array>
          </mxGeometry>
        </mxCell>
        <mxCell id="_0hRWhvat12emm41GTX_-136" style="edgeStyle=orthogonalEdgeStyle;rounded=0;orthogonalLoop=1;jettySize=auto;html=1;entryX=0;entryY=0.5;entryDx=0;entryDy=0;" edge="1" parent="1" source="_0hRWhvat12emm41GTX_-87" target="_0hRWhvat12emm41GTX_-134">
          <mxGeometry relative="1" as="geometry" />
        </mxCell>
        <mxCell id="_0hRWhvat12emm41GTX_-87" value="&lt;div style=&quot;font-size: 14px;&quot;&gt;&lt;b&gt;Los recursos Materiales&lt;/b&gt;&lt;/div&gt;" style="shape=step;perimeter=stepPerimeter;whiteSpace=wrap;html=1;fixedSize=1;align=center;fillColor=#fad9d5;strokeColor=#ae4132;" vertex="1" parent="1">
          <mxGeometry x="645" y="920" width="150" height="80" as="geometry" />
        </mxCell>
        <mxCell id="_0hRWhvat12emm41GTX_-89" value="Propiedades Mecánicas Clasificación por Origen, Tipo de Material. Normalización" style="rounded=0;whiteSpace=wrap;html=1;fillColor=#f8cecc;strokeColor=#b85450;" vertex="1" parent="1">
          <mxGeometry x="515" y="730" width="120" height="120" as="geometry" />
        </mxCell>
        <mxCell id="_0hRWhvat12emm41GTX_-94" style="edgeStyle=orthogonalEdgeStyle;rounded=0;orthogonalLoop=1;jettySize=auto;html=1;entryX=0;entryY=0.5;entryDx=0;entryDy=0;" edge="1" parent="1" source="_0hRWhvat12emm41GTX_-91" target="_0hRWhvat12emm41GTX_-92">
          <mxGeometry relative="1" as="geometry" />
        </mxCell>
        <mxCell id="_0hRWhvat12emm41GTX_-99" style="edgeStyle=orthogonalEdgeStyle;rounded=0;orthogonalLoop=1;jettySize=auto;html=1;entryX=0.5;entryY=1;entryDx=0;entryDy=0;" edge="1" parent="1" source="_0hRWhvat12emm41GTX_-91" target="_0hRWhvat12emm41GTX_-98">
          <mxGeometry relative="1" as="geometry">
            <Array as="points">
              <mxPoint x="563" y="1240" />
            </Array>
          </mxGeometry>
        </mxCell>
        <mxCell id="_0hRWhvat12emm41GTX_-107" style="edgeStyle=orthogonalEdgeStyle;rounded=0;orthogonalLoop=1;jettySize=auto;html=1;entryX=0.5;entryY=0;entryDx=0;entryDy=0;" edge="1" parent="1" source="_0hRWhvat12emm41GTX_-91" target="_0hRWhvat12emm41GTX_-103">
          <mxGeometry relative="1" as="geometry" />
        </mxCell>
        <mxCell id="_0hRWhvat12emm41GTX_-91" value="&lt;div style=&quot;font-size: 14px;&quot;&gt;&lt;b&gt;Organización &lt;br&gt;en el Trabajo&lt;/b&gt;&lt;/div&gt;" style="shape=step;perimeter=stepPerimeter;whiteSpace=wrap;html=1;fixedSize=1;align=center;fillColor=#dae8fc;strokeColor=#6c8ebf;gradientColor=#7ea6e0;" vertex="1" parent="1">
          <mxGeometry x="345" y="1200" width="150" height="80" as="geometry" />
        </mxCell>
        <mxCell id="_0hRWhvat12emm41GTX_-139" style="edgeStyle=orthogonalEdgeStyle;rounded=0;orthogonalLoop=1;jettySize=auto;html=1;entryX=0;entryY=0.5;entryDx=0;entryDy=0;" edge="1" parent="1" source="_0hRWhvat12emm41GTX_-92" target="_0hRWhvat12emm41GTX_-137">
          <mxGeometry relative="1" as="geometry" />
        </mxCell>
        <mxCell id="_0hRWhvat12emm41GTX_-141" style="edgeStyle=orthogonalEdgeStyle;rounded=0;orthogonalLoop=1;jettySize=auto;html=1;entryX=0;entryY=0.5;entryDx=0;entryDy=0;" edge="1" parent="1" source="_0hRWhvat12emm41GTX_-92" target="_0hRWhvat12emm41GTX_-138">
          <mxGeometry relative="1" as="geometry" />
        </mxCell>
        <mxCell id="_0hRWhvat12emm41GTX_-142" style="edgeStyle=orthogonalEdgeStyle;rounded=0;orthogonalLoop=1;jettySize=auto;html=1;entryX=0.5;entryY=0;entryDx=0;entryDy=0;" edge="1" parent="1" source="_0hRWhvat12emm41GTX_-92" target="_0hRWhvat12emm41GTX_-111">
          <mxGeometry relative="1" as="geometry">
            <Array as="points">
              <mxPoint x="720" y="1330" />
              <mxPoint x="940" y="1330" />
            </Array>
          </mxGeometry>
        </mxCell>
        <mxCell id="_0hRWhvat12emm41GTX_-92" value="&lt;div style=&quot;font-size: 14px;&quot;&gt;&lt;b&gt;Organización &lt;br&gt;en el Trabajo&lt;/b&gt;&lt;/div&gt;" style="shape=step;perimeter=stepPerimeter;whiteSpace=wrap;html=1;fixedSize=1;align=center;fillColor=#dae8fc;strokeColor=#6c8ebf;gradientColor=#7ea6e0;" vertex="1" parent="1">
          <mxGeometry x="645" y="1200" width="150" height="80" as="geometry" />
        </mxCell>
        <mxCell id="_0hRWhvat12emm41GTX_-98" value="Organización y gestión en respuesta a las necesidades surgidas en el diseño, Análisis del impacto social y medioambiental producido por la&lt;br&gt;explotación, transformación y deshecho de materiales" style="rounded=0;whiteSpace=wrap;html=1;fillColor=#dae8fc;gradientColor=#7ea6e0;strokeColor=#6c8ebf;" vertex="1" parent="1">
          <mxGeometry x="485" y="1020" width="155" height="120" as="geometry" />
        </mxCell>
        <mxCell id="_0hRWhvat12emm41GTX_-100" value="" style="edgeStyle=orthogonalEdgeStyle;rounded=0;orthogonalLoop=1;jettySize=auto;html=1;fillColor=#f5f5f5;strokeColor=#666666;gradientColor=#b3b3b3;sketch=1;curveFitting=1;jiggle=2;shadow=1;" edge="1" parent="1" source="_0hRWhvat12emm41GTX_-103" target="_0hRWhvat12emm41GTX_-104">
          <mxGeometry relative="1" as="geometry" />
        </mxCell>
        <mxCell id="_0hRWhvat12emm41GTX_-101" value="" style="edgeStyle=orthogonalEdgeStyle;rounded=0;orthogonalLoop=1;jettySize=auto;html=1;fillColor=#f5f5f5;strokeColor=#666666;gradientColor=#b3b3b3;sketch=1;curveFitting=1;jiggle=2;shadow=1;" edge="1" parent="1" source="_0hRWhvat12emm41GTX_-103" target="_0hRWhvat12emm41GTX_-105">
          <mxGeometry relative="1" as="geometry" />
        </mxCell>
        <mxCell id="_0hRWhvat12emm41GTX_-102" value="" style="edgeStyle=orthogonalEdgeStyle;rounded=0;orthogonalLoop=1;jettySize=auto;html=1;fillColor=#f5f5f5;strokeColor=#666666;gradientColor=#b3b3b3;sketch=1;curveFitting=1;jiggle=2;shadow=1;" edge="1" parent="1" source="_0hRWhvat12emm41GTX_-103" target="_0hRWhvat12emm41GTX_-106">
          <mxGeometry relative="1" as="geometry" />
        </mxCell>
        <mxCell id="_0hRWhvat12emm41GTX_-103" value="Trabajos Practicos" style="rhombus;whiteSpace=wrap;html=1;fillColor=#f5f5f5;strokeColor=#666666;gradientColor=#b3b3b3;sketch=1;curveFitting=1;jiggle=2;shadow=1;" vertex="1" parent="1">
          <mxGeometry x="355" y="1450" width="130" height="130" as="geometry" />
        </mxCell>
        <mxCell id="_0hRWhvat12emm41GTX_-104" value="Caja de&amp;nbsp;&lt;div&gt;Herramientas&lt;/div&gt;" style="ellipse;whiteSpace=wrap;html=1;fillColor=#f5f5f5;strokeColor=#666666;gradientColor=#b3b3b3;sketch=1;curveFitting=1;jiggle=2;shadow=1;" vertex="1" parent="1">
          <mxGeometry x="170" y="1475" width="80" height="80" as="geometry" />
        </mxCell>
        <mxCell id="_0hRWhvat12emm41GTX_-105" value="Piqueta o&amp;nbsp;&lt;div&gt;Martillo&amp;nbsp;&lt;/div&gt;" style="ellipse;whiteSpace=wrap;html=1;fillColor=#f5f5f5;strokeColor=#666666;gradientColor=#b3b3b3;sketch=1;curveFitting=1;jiggle=2;shadow=1;" vertex="1" parent="1">
          <mxGeometry x="380" y="1685" width="80" height="80" as="geometry" />
        </mxCell>
        <mxCell id="_0hRWhvat12emm41GTX_-106" value="Tenedor y&amp;nbsp;&lt;div&gt;Atizador&lt;/div&gt;" style="ellipse;whiteSpace=wrap;html=1;fillColor=#f5f5f5;strokeColor=#666666;gradientColor=#b3b3b3;sketch=1;curveFitting=1;jiggle=2;shadow=1;" vertex="1" parent="1">
          <mxGeometry x="590" y="1475" width="80" height="80" as="geometry" />
        </mxCell>
        <mxCell id="_0hRWhvat12emm41GTX_-108" value="" style="edgeStyle=orthogonalEdgeStyle;rounded=0;orthogonalLoop=1;jettySize=auto;html=1;fillColor=#f5f5f5;strokeColor=#666666;shadow=1;snapToPoint=0;enumerate=0;comic=0;backgroundOutline=0;metaEdit=0;fixDash=0;gradientColor=#b3b3b3;sketch=1;curveFitting=1;jiggle=2;" edge="1" parent="1" source="_0hRWhvat12emm41GTX_-111" target="_0hRWhvat12emm41GTX_-112">
          <mxGeometry relative="1" as="geometry" />
        </mxCell>
        <mxCell id="_0hRWhvat12emm41GTX_-109" value="" style="edgeStyle=orthogonalEdgeStyle;rounded=0;orthogonalLoop=1;jettySize=auto;html=1;fillColor=#f5f5f5;strokeColor=#666666;shadow=1;snapToPoint=0;enumerate=0;comic=0;backgroundOutline=0;metaEdit=0;fixDash=0;gradientColor=#b3b3b3;sketch=1;curveFitting=1;jiggle=2;" edge="1" parent="1" source="_0hRWhvat12emm41GTX_-111" target="_0hRWhvat12emm41GTX_-113">
          <mxGeometry relative="1" as="geometry" />
        </mxCell>
        <mxCell id="_0hRWhvat12emm41GTX_-110" value="" style="edgeStyle=orthogonalEdgeStyle;rounded=0;orthogonalLoop=1;jettySize=auto;html=1;fillColor=#f5f5f5;strokeColor=#666666;shadow=1;snapToPoint=0;enumerate=0;comic=0;backgroundOutline=0;metaEdit=0;fixDash=0;gradientColor=#b3b3b3;sketch=1;curveFitting=1;jiggle=2;" edge="1" parent="1" source="_0hRWhvat12emm41GTX_-111" target="_0hRWhvat12emm41GTX_-114">
          <mxGeometry relative="1" as="geometry" />
        </mxCell>
        <mxCell id="_0hRWhvat12emm41GTX_-111" value="Trabajos Practicos" style="rhombus;whiteSpace=wrap;html=1;fillColor=#f5f5f5;strokeColor=#666666;shadow=1;snapToPoint=0;enumerate=0;comic=0;backgroundOutline=0;metaEdit=0;fixDash=0;gradientColor=#b3b3b3;sketch=1;curveFitting=1;jiggle=2;" vertex="1" parent="1">
          <mxGeometry x="875" y="1450" width="130" height="130" as="geometry" />
        </mxCell>
        <mxCell id="_0hRWhvat12emm41GTX_-112" value="Tacho de&amp;nbsp;&lt;div&gt;Basura&lt;/div&gt;" style="ellipse;whiteSpace=wrap;html=1;fillColor=#f5f5f5;strokeColor=#666666;shadow=1;snapToPoint=0;enumerate=0;comic=0;backgroundOutline=0;metaEdit=0;fixDash=0;gradientColor=#b3b3b3;sketch=1;curveFitting=1;jiggle=2;" vertex="1" parent="1">
          <mxGeometry x="690" y="1475" width="80" height="80" as="geometry" />
        </mxCell>
        <mxCell id="_0hRWhvat12emm41GTX_-113" value="Parrilla" style="ellipse;whiteSpace=wrap;html=1;fillColor=#f5f5f5;strokeColor=#666666;shadow=1;snapToPoint=0;enumerate=0;comic=0;backgroundOutline=0;metaEdit=0;fixDash=0;gradientColor=#b3b3b3;sketch=1;curveFitting=1;jiggle=2;" vertex="1" parent="1">
          <mxGeometry x="900" y="1685" width="80" height="80" as="geometry" />
        </mxCell>
        <mxCell id="_0hRWhvat12emm41GTX_-114" value="Asiento/Sillón" style="ellipse;whiteSpace=wrap;html=1;fillColor=#f5f5f5;strokeColor=#666666;shadow=1;snapToPoint=0;enumerate=0;comic=0;backgroundOutline=0;metaEdit=0;fixDash=0;gradientColor=#b3b3b3;sketch=1;curveFitting=1;jiggle=2;" vertex="1" parent="1">
          <mxGeometry x="1110" y="1475" width="80" height="80" as="geometry" />
        </mxCell>
        <mxCell id="_0hRWhvat12emm41GTX_-116" value="Peligros generados por las máquinas y herramientas" style="rounded=0;whiteSpace=wrap;html=1;fillColor=#d5e8d4;gradientColor=#97d077;strokeColor=#82b366;" vertex="1" parent="1">
          <mxGeometry x="980" y="250" width="120" height="60" as="geometry" />
        </mxCell>
        <mxCell id="_0hRWhvat12emm41GTX_-117" value=" Prevención de&lt;br&gt;Incendios.Clasificación de los fuegos. Agentes extintores. Causas de origen de incendios" style="rounded=0;whiteSpace=wrap;html=1;fillColor=#d5e8d4;gradientColor=#97d077;strokeColor=#82b366;" vertex="1" parent="1">
          <mxGeometry x="980" y="317.5" width="120" height="72.5" as="geometry" />
        </mxCell>
        <mxCell id="_0hRWhvat12emm41GTX_-122" value="&lt;div style=&quot;&quot;&gt;&lt;span style=&quot;background-color: initial;&quot;&gt;Lucha contra el fuego. Medios de escape. Sectorización. Evacuación de&lt;/span&gt;&lt;/div&gt;&lt;div style=&quot;&quot;&gt;&lt;span style=&quot;background-color: initial;&quot;&gt;humos. Señalización de elementos de protección contra incendios. Planes de evacuación.&amp;nbsp;&lt;/span&gt;&lt;/div&gt;" style="rounded=0;whiteSpace=wrap;html=1;fillColor=#d5e8d4;gradientColor=#97d077;strokeColor=#82b366;align=center;" vertex="1" parent="1">
          <mxGeometry x="980" y="400" width="120" height="140" as="geometry" />
        </mxCell>
        <mxCell id="_0hRWhvat12emm41GTX_-126" value="Las máquinas y herramientas utilizadas en distintas tareas de&lt;br/&gt;mantenimientos y en los procesos de producción" style="rounded=0;whiteSpace=wrap;html=1;fillColor=#fff2cc;gradientColor=#ffd966;strokeColor=#d6b656;" vertex="1" parent="1">
          <mxGeometry x="980" y="567.5" width="120" height="105" as="geometry" />
        </mxCell>
        <mxCell id="_0hRWhvat12emm41GTX_-128" value="Propiedades físicas,&lt;br/&gt;químicas, biológicas" style="rounded=0;whiteSpace=wrap;html=1;fillColor=#f8cecc;gradientColor=#ea6b66;strokeColor=#b85450;" vertex="1" parent="1">
          <mxGeometry x="980" y="740" width="120" height="60" as="geometry" />
        </mxCell>
        <mxCell id="_0hRWhvat12emm41GTX_-130" value="Tipos de materiales usados actualmente: Cerámicos. Metálicos. Compuestos orgánicos, Polímeros naturales y&lt;br&gt;artificiales, vidrios, sustratos. Materiales químicos, Hidrocarburos" style="rounded=0;whiteSpace=wrap;html=1;fillColor=#f8cecc;gradientColor=#ea6b66;strokeColor=#b85450;" vertex="1" parent="1">
          <mxGeometry x="980" y="810" width="140" height="140" as="geometry" />
        </mxCell>
        <mxCell id="_0hRWhvat12emm41GTX_-134" value="&amp;nbsp;Tratamiento y riesgos en el manipuleo de materiales" style="rounded=0;whiteSpace=wrap;html=1;fillColor=#f8cecc;gradientColor=#ea6b66;strokeColor=#b85450;" vertex="1" parent="1">
          <mxGeometry x="980" y="960" width="120" height="60" as="geometry" />
        </mxCell>
        <mxCell id="_0hRWhvat12emm41GTX_-137" value="Acuerdos en la distribución de responsabilidades" style="rounded=0;whiteSpace=wrap;html=1;fillColor=#dae8fc;gradientColor=#7ea6e0;strokeColor=#6c8ebf;" vertex="1" parent="1">
          <mxGeometry x="980" y="1109" width="120" height="60" as="geometry" />
        </mxCell>
        <mxCell id="_0hRWhvat12emm41GTX_-138" value=" Planificación de las diferentes operaciones de la producción:&lt;br/&gt;búsqueda, discriminación y selección de la información útil" style="rounded=0;whiteSpace=wrap;html=1;fillColor=#dae8fc;gradientColor=#7ea6e0;strokeColor=#6c8ebf;" vertex="1" parent="1">
          <mxGeometry x="980" y="1185" width="120" height="110" as="geometry" />
        </mxCell>
      </root>
    </mxGraphModel>
  </diagram>
</mxfile>
